<svg width="359" height="308" viewBox="0 0 359 308" fill="none" xmlns="http://www.w3.org/2000/svg">
<rect width="359" height="308" fill="#E9E1DA"/>
<path d="M119.075 145.444H113.837L112.937 148H110.795L115.277 135.472H117.653L122.135 148H119.975L119.075 145.444ZM118.499 143.77L116.465 137.956L114.413 143.77H118.499ZM127.683 148.162C126.903 148.162 126.201 148.024 125.577 147.748C124.965 147.46 124.479 147.076 124.119 146.596C123.759 146.104 123.567 145.558 123.543 144.958H125.667C125.703 145.378 125.901 145.732 126.261 146.02C126.633 146.296 127.095 146.434 127.647 146.434C128.223 146.434 128.667 146.326 128.979 146.11C129.303 145.882 129.465 145.594 129.465 145.246C129.465 144.874 129.285 144.598 128.925 144.418C128.577 144.238 128.019 144.04 127.251 143.824C126.507 143.62 125.901 143.422 125.433 143.23C124.965 143.038 124.557 142.744 124.209 142.348C123.873 141.952 123.705 141.43 123.705 140.782C123.705 140.254 123.861 139.774 124.173 139.342C124.485 138.898 124.929 138.55 125.505 138.298C126.093 138.046 126.765 137.92 127.521 137.92C128.649 137.92 129.555 138.208 130.239 138.784C130.935 139.348 131.307 140.122 131.355 141.106H129.303C129.267 140.662 129.087 140.308 128.763 140.044C128.439 139.78 128.001 139.648 127.449 139.648C126.909 139.648 126.495 139.75 126.207 139.954C125.919 140.158 125.775 140.428 125.775 140.764C125.775 141.028 125.871 141.25 126.063 141.43C126.255 141.61 126.489 141.754 126.765 141.862C127.041 141.958 127.449 142.084 127.989 142.24C128.709 142.432 129.297 142.63 129.753 142.834C130.221 143.026 130.623 143.314 130.959 143.698C131.295 144.082 131.469 144.592 131.481 145.228C131.481 145.792 131.325 146.296 131.013 146.74C130.701 147.184 130.257 147.532 129.681 147.784C129.117 148.036 128.451 148.162 127.683 148.162ZM137.623 143.05L142.195 148H139.423L135.751 143.734V148H133.699V134.68H135.751V142.42L139.351 138.082H142.195L137.623 143.05ZM152.499 139.756H150.663V148H148.593V139.756H147.423V138.082H148.593V137.38C148.593 136.24 148.893 135.412 149.493 134.896C150.105 134.368 151.059 134.104 152.355 134.104V135.814C151.731 135.814 151.293 135.934 151.041 136.174C150.789 136.402 150.663 136.804 150.663 137.38V138.082H152.499V139.756ZM158.62 148.162C157.684 148.162 156.838 147.952 156.082 147.532C155.326 147.1 154.732 146.5 154.3 145.732C153.868 144.952 153.652 144.052 153.652 143.032C153.652 142.024 153.874 141.13 154.318 140.35C154.762 139.57 155.368 138.97 156.136 138.55C156.904 138.13 157.762 137.92 158.71 137.92C159.658 137.92 160.516 138.13 161.284 138.55C162.052 138.97 162.658 139.57 163.102 140.35C163.546 141.13 163.768 142.024 163.768 143.032C163.768 144.04 163.54 144.934 163.084 145.714C162.628 146.494 162.004 147.1 161.212 147.532C160.432 147.952 159.568 148.162 158.62 148.162ZM158.62 146.38C159.148 146.38 159.64 146.254 160.096 146.002C160.564 145.75 160.942 145.372 161.23 144.868C161.518 144.364 161.662 143.752 161.662 143.032C161.662 142.312 161.524 141.706 161.248 141.214C160.972 140.71 160.606 140.332 160.15 140.08C159.694 139.828 159.202 139.702 158.674 139.702C158.146 139.702 157.654 139.828 157.198 140.08C156.754 140.332 156.4 140.71 156.136 141.214C155.872 141.706 155.74 142.312 155.74 143.032C155.74 144.1 156.01 144.928 156.55 145.516C157.102 146.092 157.792 146.38 158.62 146.38ZM167.848 139.522C168.148 139.018 168.544 138.628 169.036 138.352C169.54 138.064 170.134 137.92 170.818 137.92V140.044H170.296C169.492 140.044 168.88 140.248 168.46 140.656C168.052 141.064 167.848 141.772 167.848 142.78V148H165.796V138.082H167.848V139.522ZM180.98 148.162C180.2 148.162 179.498 148.024 178.874 147.748C178.262 147.46 177.776 147.076 177.416 146.596C177.056 146.104 176.864 145.558 176.84 144.958H178.964C179 145.378 179.198 145.732 179.558 146.02C179.93 146.296 180.392 146.434 180.944 146.434C181.52 146.434 181.964 146.326 182.276 146.11C182.6 145.882 182.762 145.594 182.762 145.246C182.762 144.874 182.582 144.598 182.222 144.418C181.874 144.238 181.316 144.04 180.548 143.824C179.804 143.62 179.198 143.422 178.73 143.23C178.262 143.038 177.854 142.744 177.506 142.348C177.17 141.952 177.002 141.43 177.002 140.782C177.002 140.254 177.158 139.774 177.47 139.342C177.782 138.898 178.226 138.55 178.802 138.298C179.39 138.046 180.062 137.92 180.818 137.92C181.946 137.92 182.852 138.208 183.536 138.784C184.232 139.348 184.604 140.122 184.652 141.106H182.6C182.564 140.662 182.384 140.308 182.06 140.044C181.736 139.78 181.298 139.648 180.746 139.648C180.206 139.648 179.792 139.75 179.504 139.954C179.216 140.158 179.072 140.428 179.072 140.764C179.072 141.028 179.168 141.25 179.36 141.43C179.552 141.61 179.786 141.754 180.062 141.862C180.338 141.958 180.746 142.084 181.286 142.24C182.006 142.432 182.594 142.63 183.05 142.834C183.518 143.026 183.92 143.314 184.256 143.698C184.592 144.082 184.766 144.592 184.778 145.228C184.778 145.792 184.622 146.296 184.31 146.74C183.998 147.184 183.554 147.532 182.978 147.784C182.414 148.036 181.748 148.162 180.98 148.162ZM195.978 138.082V148H193.926V146.83C193.602 147.238 193.176 147.562 192.648 147.802C192.132 148.03 191.58 148.144 190.992 148.144C190.212 148.144 189.51 147.982 188.886 147.658C188.274 147.334 187.788 146.854 187.428 146.218C187.08 145.582 186.906 144.814 186.906 143.914V138.082H188.94V143.608C188.94 144.496 189.162 145.18 189.606 145.66C190.05 146.128 190.656 146.362 191.424 146.362C192.192 146.362 192.798 146.128 193.242 145.66C193.698 145.18 193.926 144.496 193.926 143.608V138.082H195.978ZM200.737 139.54C201.085 139.084 201.559 138.7 202.159 138.388C202.759 138.076 203.437 137.92 204.193 137.92C205.057 137.92 205.843 138.136 206.551 138.568C207.271 138.988 207.835 139.582 208.243 140.35C208.651 141.118 208.855 142 208.855 142.996C208.855 143.992 208.651 144.886 208.243 145.678C207.835 146.458 207.271 147.07 206.551 147.514C205.843 147.946 205.057 148.162 204.193 148.162C203.437 148.162 202.765 148.012 202.177 147.712C201.589 147.4 201.109 147.016 200.737 146.56V152.716H198.685V138.082H200.737V139.54ZM206.767 142.996C206.767 142.312 206.623 141.724 206.335 141.232C206.059 140.728 205.687 140.35 205.219 140.098C204.763 139.834 204.271 139.702 203.743 139.702C203.227 139.702 202.735 139.834 202.267 140.098C201.811 140.362 201.439 140.746 201.151 141.25C200.875 141.754 200.737 142.348 200.737 143.032C200.737 143.716 200.875 144.316 201.151 144.832C201.439 145.336 201.811 145.72 202.267 145.984C202.735 146.248 203.227 146.38 203.743 146.38C204.271 146.38 204.763 146.248 205.219 145.984C205.687 145.708 206.059 145.312 206.335 144.796C206.623 144.28 206.767 143.68 206.767 142.996ZM212.936 139.54C213.284 139.084 213.758 138.7 214.358 138.388C214.958 138.076 215.636 137.92 216.392 137.92C217.256 137.92 218.042 138.136 218.75 138.568C219.47 138.988 220.034 139.582 220.442 140.35C220.85 141.118 221.054 142 221.054 142.996C221.054 143.992 220.85 144.886 220.442 145.678C220.034 146.458 219.47 147.07 218.75 147.514C218.042 147.946 217.256 148.162 216.392 148.162C215.636 148.162 214.964 148.012 214.376 147.712C213.788 147.4 213.308 147.016 212.936 146.56V152.716H210.884V138.082H212.936V139.54ZM218.966 142.996C218.966 142.312 218.822 141.724 218.534 141.232C218.258 140.728 217.886 140.35 217.418 140.098C216.962 139.834 216.47 139.702 215.942 139.702C215.426 139.702 214.934 139.834 214.466 140.098C214.01 140.362 213.638 140.746 213.35 141.25C213.074 141.754 212.936 142.348 212.936 143.032C212.936 143.716 213.074 144.316 213.35 144.832C213.638 145.336 214.01 145.72 214.466 145.984C214.934 146.248 215.426 146.38 215.942 146.38C216.47 146.38 216.962 146.248 217.418 145.984C217.886 145.708 218.258 145.312 218.534 144.796C218.822 144.28 218.966 143.68 218.966 142.996ZM227.385 148.162C226.449 148.162 225.603 147.952 224.847 147.532C224.091 147.1 223.497 146.5 223.065 145.732C222.633 144.952 222.417 144.052 222.417 143.032C222.417 142.024 222.639 141.13 223.083 140.35C223.527 139.57 224.133 138.97 224.901 138.55C225.669 138.13 226.527 137.92 227.475 137.92C228.423 137.92 229.281 138.13 230.049 138.55C230.817 138.97 231.423 139.57 231.867 140.35C232.311 141.13 232.533 142.024 232.533 143.032C232.533 144.04 232.305 144.934 231.849 145.714C231.393 146.494 230.769 147.1 229.977 147.532C229.197 147.952 228.333 148.162 227.385 148.162ZM227.385 146.38C227.913 146.38 228.405 146.254 228.861 146.002C229.329 145.75 229.707 145.372 229.995 144.868C230.283 144.364 230.427 143.752 230.427 143.032C230.427 142.312 230.289 141.706 230.013 141.214C229.737 140.71 229.371 140.332 228.915 140.08C228.459 139.828 227.967 139.702 227.439 139.702C226.911 139.702 226.419 139.828 225.963 140.08C225.519 140.332 225.165 140.71 224.901 141.214C224.637 141.706 224.505 142.312 224.505 143.032C224.505 144.1 224.775 144.928 225.315 145.516C225.867 146.092 226.557 146.38 227.385 146.38ZM236.614 139.522C236.914 139.018 237.31 138.628 237.802 138.352C238.306 138.064 238.9 137.92 239.584 137.92V140.044H239.062C238.258 140.044 237.646 140.248 237.226 140.656C236.818 141.064 236.614 141.772 236.614 142.78V148H234.562V138.082H236.614V139.522ZM243.864 139.756V145.246C243.864 145.618 243.948 145.888 244.116 146.056C244.296 146.212 244.596 146.29 245.016 146.29H246.276V148H244.656C243.732 148 243.024 147.784 242.532 147.352C242.04 146.92 241.794 146.218 241.794 145.246V139.756H240.624V138.082H241.794V135.616H243.864V138.082H246.276V139.756H243.864Z" fill="black"/>
<path d="M70.4392 199.242C71.5032 199.242 72.4226 199.443 73.1972 199.844C73.9812 200.236 74.5786 200.801 74.9892 201.538C75.4092 202.275 75.6192 203.143 75.6192 204.142C75.6192 205.141 75.4092 206.009 74.9892 206.746C74.5786 207.474 73.9812 208.034 73.1972 208.426C72.4226 208.809 71.5032 209 70.4392 209H67.4012V199.242H70.4392ZM70.4392 207.95C71.6992 207.95 72.6606 207.619 73.3232 206.956C73.9859 206.284 74.3172 205.346 74.3172 204.142C74.3172 202.929 73.9812 201.981 73.3092 201.3C72.6466 200.619 71.6899 200.278 70.4392 200.278H68.6752V207.95H70.4392ZM80.6457 209.126C79.927 209.126 79.2737 208.963 78.6857 208.636C78.107 208.309 77.6497 207.847 77.3137 207.25C76.987 206.643 76.8237 205.943 76.8237 205.15C76.8237 204.366 76.9917 203.675 77.3277 203.078C77.673 202.471 78.1397 202.009 78.7277 201.692C79.3157 201.365 79.9737 201.202 80.7017 201.202C81.4297 201.202 82.0877 201.365 82.6757 201.692C83.2637 202.009 83.7257 202.467 84.0617 203.064C84.407 203.661 84.5797 204.357 84.5797 205.15C84.5797 205.943 84.4023 206.643 84.0477 207.25C83.7023 207.847 83.231 208.309 82.6337 208.636C82.0363 208.963 81.3737 209.126 80.6457 209.126ZM80.6457 208.006C81.103 208.006 81.5323 207.899 81.9337 207.684C82.335 207.469 82.657 207.147 82.8997 206.718C83.1517 206.289 83.2777 205.766 83.2777 205.15C83.2777 204.534 83.1563 204.011 82.9137 203.582C82.671 203.153 82.3537 202.835 81.9617 202.63C81.5697 202.415 81.145 202.308 80.6877 202.308C80.221 202.308 79.7917 202.415 79.3997 202.63C79.017 202.835 78.709 203.153 78.4757 203.582C78.2423 204.011 78.1257 204.534 78.1257 205.15C78.1257 205.775 78.2377 206.303 78.4617 206.732C78.695 207.161 79.003 207.483 79.3857 207.698C79.7683 207.903 80.1883 208.006 80.6457 208.006ZM93.2548 204.87C93.2548 205.113 93.2408 205.369 93.2128 205.64H87.0808C87.1274 206.396 87.3841 206.989 87.8508 207.418C88.3268 207.838 88.9008 208.048 89.5728 208.048C90.1234 208.048 90.5808 207.922 90.9448 207.67C91.3181 207.409 91.5794 207.063 91.7288 206.634H93.1008C92.8954 207.371 92.4848 207.973 91.8688 208.44C91.2528 208.897 90.4874 209.126 89.5728 209.126C88.8448 209.126 88.1914 208.963 87.6128 208.636C87.0434 208.309 86.5954 207.847 86.2688 207.25C85.9421 206.643 85.7788 205.943 85.7788 205.15C85.7788 204.357 85.9374 203.661 86.2548 203.064C86.5721 202.467 87.0154 202.009 87.5848 201.692C88.1634 201.365 88.8261 201.202 89.5728 201.202C90.3008 201.202 90.9448 201.361 91.5048 201.678C92.0648 201.995 92.4941 202.434 92.7928 202.994C93.1008 203.545 93.2548 204.17 93.2548 204.87ZM91.9388 204.604C91.9388 204.119 91.8314 203.703 91.6168 203.358C91.4021 203.003 91.1081 202.737 90.7348 202.56C90.3708 202.373 89.9648 202.28 89.5168 202.28C88.8728 202.28 88.3221 202.485 87.8648 202.896C87.4168 203.307 87.1601 203.876 87.0948 204.604H91.9388ZM97.6524 209.126C97.0644 209.126 96.5371 209.028 96.0704 208.832C95.6037 208.627 95.2351 208.347 94.9644 207.992C94.6937 207.628 94.5444 207.213 94.5164 206.746H95.8324C95.8697 207.129 96.0471 207.441 96.3644 207.684C96.6911 207.927 97.1157 208.048 97.6384 208.048C98.1237 208.048 98.5064 207.941 98.7864 207.726C99.0664 207.511 99.2064 207.241 99.2064 206.914C99.2064 206.578 99.0571 206.331 98.7584 206.172C98.4597 206.004 97.9977 205.841 97.3724 205.682C96.8031 205.533 96.3364 205.383 95.9724 205.234C95.6177 205.075 95.3097 204.847 95.0484 204.548C94.7964 204.24 94.6704 203.839 94.6704 203.344C94.6704 202.952 94.7871 202.593 95.0204 202.266C95.2537 201.939 95.5851 201.683 96.0144 201.496C96.4437 201.3 96.9337 201.202 97.4844 201.202C98.3337 201.202 99.0197 201.417 99.5424 201.846C100.065 202.275 100.345 202.863 100.382 203.61H99.1084C99.0804 203.209 98.9171 202.887 98.6184 202.644C98.3291 202.401 97.9371 202.28 97.4424 202.28C96.9851 202.28 96.6211 202.378 96.3504 202.574C96.0797 202.77 95.9444 203.027 95.9444 203.344C95.9444 203.596 96.0237 203.806 96.1824 203.974C96.3504 204.133 96.5557 204.263 96.7984 204.366C97.0504 204.459 97.3957 204.567 97.8344 204.688C98.3851 204.837 98.8331 204.987 99.1784 205.136C99.5237 205.276 99.8177 205.491 100.06 205.78C100.312 206.069 100.443 206.447 100.452 206.914C100.452 207.334 100.336 207.712 100.102 208.048C99.8691 208.384 99.5377 208.65 99.1084 208.846C98.6884 209.033 98.2031 209.126 97.6524 209.126ZM105.989 201.188C106.922 201.188 107.678 201.473 108.257 202.042C108.836 202.602 109.125 203.414 109.125 204.478V209H107.865V204.66C107.865 203.895 107.674 203.311 107.291 202.91C106.908 202.499 106.386 202.294 105.723 202.294C105.051 202.294 104.514 202.504 104.113 202.924C103.721 203.344 103.525 203.955 103.525 204.758V209H102.251V201.328H103.525V202.42C103.777 202.028 104.118 201.725 104.547 201.51C104.986 201.295 105.466 201.188 105.989 201.188ZM111.402 199.242H112.816L111.472 202.42H110.576L111.402 199.242ZM115.822 202.378V206.9C115.822 207.273 115.902 207.539 116.06 207.698C116.219 207.847 116.494 207.922 116.886 207.922H117.824V209H116.676C115.967 209 115.435 208.837 115.08 208.51C114.726 208.183 114.548 207.647 114.548 206.9V202.378H113.554V201.328H114.548V199.396H115.822V201.328H117.824V202.378H115.822ZM132.326 201.188C132.924 201.188 133.456 201.314 133.922 201.566C134.389 201.809 134.758 202.177 135.028 202.672C135.299 203.167 135.434 203.769 135.434 204.478V209H134.174V204.66C134.174 203.895 133.983 203.311 133.6 202.91C133.227 202.499 132.718 202.294 132.074 202.294C131.412 202.294 130.884 202.509 130.492 202.938C130.1 203.358 129.904 203.969 129.904 204.772V209H128.644V204.66C128.644 203.895 128.453 203.311 128.07 202.91C127.697 202.499 127.188 202.294 126.544 202.294C125.882 202.294 125.354 202.509 124.962 202.938C124.57 203.358 124.374 203.969 124.374 204.772V209H123.1V201.328H124.374V202.434C124.626 202.033 124.962 201.725 125.382 201.51C125.812 201.295 126.283 201.188 126.796 201.188C127.44 201.188 128.01 201.333 128.504 201.622C128.999 201.911 129.368 202.336 129.61 202.896C129.825 202.355 130.18 201.935 130.674 201.636C131.169 201.337 131.72 201.188 132.326 201.188ZM137.048 205.136C137.048 204.352 137.207 203.666 137.524 203.078C137.842 202.481 138.276 202.019 138.826 201.692C139.386 201.365 140.007 201.202 140.688 201.202C141.36 201.202 141.944 201.347 142.438 201.636C142.933 201.925 143.302 202.289 143.544 202.728V201.328H144.832V209H143.544V207.572C143.292 208.02 142.914 208.393 142.41 208.692C141.916 208.981 141.337 209.126 140.674 209.126C139.993 209.126 139.377 208.958 138.826 208.622C138.276 208.286 137.842 207.815 137.524 207.208C137.207 206.601 137.048 205.911 137.048 205.136ZM143.544 205.15C143.544 204.571 143.428 204.067 143.194 203.638C142.961 203.209 142.644 202.882 142.242 202.658C141.85 202.425 141.416 202.308 140.94 202.308C140.464 202.308 140.03 202.42 139.638 202.644C139.246 202.868 138.934 203.195 138.7 203.624C138.467 204.053 138.35 204.557 138.35 205.136C138.35 205.724 138.467 206.237 138.7 206.676C138.934 207.105 139.246 207.437 139.638 207.67C140.03 207.894 140.464 208.006 140.94 208.006C141.416 208.006 141.85 207.894 142.242 207.67C142.644 207.437 142.961 207.105 143.194 206.676C143.428 206.237 143.544 205.729 143.544 205.15ZM148.539 202.378V206.9C148.539 207.273 148.619 207.539 148.777 207.698C148.936 207.847 149.211 207.922 149.603 207.922H150.541V209H149.393C148.684 209 148.152 208.837 147.797 208.51C147.443 208.183 147.265 207.647 147.265 206.9V202.378H146.271V201.328H147.265V199.396H148.539V201.328H150.541V202.378H148.539ZM153.639 202.378V206.9C153.639 207.273 153.718 207.539 153.877 207.698C154.036 207.847 154.311 207.922 154.703 207.922H155.641V209H154.493C153.784 209 153.252 208.837 152.897 208.51C152.542 208.183 152.365 207.647 152.365 206.9V202.378H151.371V201.328H152.365V199.396H153.639V201.328H155.641V202.378H153.639ZM164.184 204.87C164.184 205.113 164.17 205.369 164.142 205.64H158.01C158.057 206.396 158.314 206.989 158.78 207.418C159.256 207.838 159.83 208.048 160.502 208.048C161.053 208.048 161.51 207.922 161.874 207.67C162.248 207.409 162.509 207.063 162.658 206.634H164.03C163.825 207.371 163.414 207.973 162.798 208.44C162.182 208.897 161.417 209.126 160.502 209.126C159.774 209.126 159.121 208.963 158.542 208.636C157.973 208.309 157.525 207.847 157.198 207.25C156.872 206.643 156.708 205.943 156.708 205.15C156.708 204.357 156.867 203.661 157.184 203.064C157.502 202.467 157.945 202.009 158.514 201.692C159.093 201.365 159.756 201.202 160.502 201.202C161.23 201.202 161.874 201.361 162.434 201.678C162.994 201.995 163.424 202.434 163.722 202.994C164.03 203.545 164.184 204.17 164.184 204.87ZM162.868 204.604C162.868 204.119 162.761 203.703 162.546 203.358C162.332 203.003 162.038 202.737 161.664 202.56C161.3 202.373 160.894 202.28 160.446 202.28C159.802 202.28 159.252 202.485 158.794 202.896C158.346 203.307 158.09 203.876 158.024 204.604H162.868ZM167.14 202.574C167.364 202.135 167.681 201.795 168.092 201.552C168.512 201.309 169.021 201.188 169.618 201.188V202.504H169.282C167.854 202.504 167.14 203.279 167.14 204.828V209H165.866V201.328H167.14V202.574ZM185.041 201.328L182.647 209H181.331L179.483 202.91L177.635 209H176.319L173.911 201.328H175.213L176.977 207.768L178.881 201.328H180.183L182.045 207.782L183.781 201.328H185.041ZM190.114 201.188C190.692 201.188 191.215 201.314 191.682 201.566C192.148 201.809 192.512 202.177 192.774 202.672C193.044 203.167 193.18 203.769 193.18 204.478V209H191.92V204.66C191.92 203.895 191.728 203.311 191.346 202.91C190.963 202.499 190.44 202.294 189.778 202.294C189.106 202.294 188.569 202.504 188.168 202.924C187.776 203.344 187.58 203.955 187.58 204.758V209H186.306V198.64H187.58V202.42C187.832 202.028 188.177 201.725 188.616 201.51C189.064 201.295 189.563 201.188 190.114 201.188ZM194.785 205.136C194.785 204.352 194.943 203.666 195.261 203.078C195.578 202.481 196.012 202.019 196.563 201.692C197.123 201.365 197.743 201.202 198.425 201.202C199.097 201.202 199.68 201.347 200.175 201.636C200.669 201.925 201.038 202.289 201.281 202.728V201.328H202.569V209H201.281V207.572C201.029 208.02 200.651 208.393 200.147 208.692C199.652 208.981 199.073 209.126 198.411 209.126C197.729 209.126 197.113 208.958 196.563 208.622C196.012 208.286 195.578 207.815 195.261 207.208C194.943 206.601 194.785 205.911 194.785 205.136ZM201.281 205.15C201.281 204.571 201.164 204.067 200.931 203.638C200.697 203.209 200.38 202.882 199.979 202.658C199.587 202.425 199.153 202.308 198.677 202.308C198.201 202.308 197.767 202.42 197.375 202.644C196.983 202.868 196.67 203.195 196.437 203.624C196.203 204.053 196.087 204.557 196.087 205.136C196.087 205.724 196.203 206.237 196.437 206.676C196.67 207.105 196.983 207.437 197.375 207.67C197.767 207.894 198.201 208.006 198.677 208.006C199.153 208.006 199.587 207.894 199.979 207.67C200.38 207.437 200.697 207.105 200.931 206.676C201.164 206.237 201.281 205.729 201.281 205.15ZM206.276 202.378V206.9C206.276 207.273 206.355 207.539 206.514 207.698C206.672 207.847 206.948 207.922 207.34 207.922H208.278V209H207.13C206.42 209 205.888 208.837 205.534 208.51C205.179 208.183 205.002 207.647 205.002 206.9V202.378H204.008V201.328H205.002V199.396H206.276V201.328H208.278V202.378H206.276ZM215.108 202.378V206.9C215.108 207.273 215.187 207.539 215.346 207.698C215.504 207.847 215.78 207.922 216.172 207.922H217.11V209H215.962C215.252 209 214.72 208.837 214.366 208.51C214.011 208.183 213.834 207.647 213.834 206.9V202.378H212.84V201.328H213.834V199.396H215.108V201.328H217.11V202.378H215.108ZM222.461 201.188C223.04 201.188 223.563 201.314 224.029 201.566C224.496 201.809 224.86 202.177 225.121 202.672C225.392 203.167 225.527 203.769 225.527 204.478V209H224.267V204.66C224.267 203.895 224.076 203.311 223.693 202.91C223.311 202.499 222.788 202.294 222.125 202.294C221.453 202.294 220.917 202.504 220.515 202.924C220.123 203.344 219.927 203.955 219.927 204.758V209H218.653V198.64H219.927V202.42C220.179 202.028 220.525 201.725 220.963 201.51C221.411 201.295 221.911 201.188 222.461 201.188ZM234.608 204.87C234.608 205.113 234.594 205.369 234.566 205.64H228.434C228.481 206.396 228.738 206.989 229.204 207.418C229.68 207.838 230.254 208.048 230.926 208.048C231.477 208.048 231.934 207.922 232.298 207.67C232.672 207.409 232.933 207.063 233.082 206.634H234.454C234.249 207.371 233.838 207.973 233.222 208.44C232.606 208.897 231.841 209.126 230.926 209.126C230.198 209.126 229.545 208.963 228.966 208.636C228.397 208.309 227.949 207.847 227.622 207.25C227.296 206.643 227.132 205.943 227.132 205.15C227.132 204.357 227.291 203.661 227.608 203.064C227.926 202.467 228.369 202.009 228.938 201.692C229.517 201.365 230.18 201.202 230.926 201.202C231.654 201.202 232.298 201.361 232.858 201.678C233.418 201.995 233.848 202.434 234.146 202.994C234.454 203.545 234.608 204.17 234.608 204.87ZM233.292 204.604C233.292 204.119 233.185 203.703 232.97 203.358C232.756 203.003 232.462 202.737 232.088 202.56C231.724 202.373 231.318 202.28 230.87 202.28C230.226 202.28 229.676 202.485 229.218 202.896C228.77 203.307 228.514 203.876 228.448 204.604H233.292ZM241.576 202.378V206.9C241.576 207.273 241.656 207.539 241.814 207.698C241.973 207.847 242.248 207.922 242.64 207.922H243.578V209H242.43C241.721 209 241.189 208.837 240.834 208.51C240.48 208.183 240.302 207.647 240.302 206.9V202.378H239.308V201.328H240.302V199.396H241.576V201.328H243.578V202.378H241.576ZM248.468 209.126C247.749 209.126 247.096 208.963 246.508 208.636C245.929 208.309 245.472 207.847 245.136 207.25C244.809 206.643 244.646 205.943 244.646 205.15C244.646 204.366 244.814 203.675 245.15 203.078C245.495 202.471 245.962 202.009 246.55 201.692C247.138 201.365 247.796 201.202 248.524 201.202C249.252 201.202 249.91 201.365 250.498 201.692C251.086 202.009 251.548 202.467 251.884 203.064C252.229 203.661 252.402 204.357 252.402 205.15C252.402 205.943 252.225 206.643 251.87 207.25C251.525 207.847 251.053 208.309 250.456 208.636C249.859 208.963 249.196 209.126 248.468 209.126ZM248.468 208.006C248.925 208.006 249.355 207.899 249.756 207.684C250.157 207.469 250.479 207.147 250.722 206.718C250.974 206.289 251.1 205.766 251.1 205.15C251.1 204.534 250.979 204.011 250.736 203.582C250.493 203.153 250.176 202.835 249.784 202.63C249.392 202.415 248.967 202.308 248.51 202.308C248.043 202.308 247.614 202.415 247.222 202.63C246.839 202.835 246.531 203.153 246.298 203.582C246.065 204.011 245.948 204.534 245.948 205.15C245.948 205.775 246.06 206.303 246.284 206.732C246.517 207.161 246.825 207.483 247.208 207.698C247.591 207.903 248.011 208.006 248.468 208.006ZM255.351 202.742C255.603 202.303 255.976 201.939 256.471 201.65C256.975 201.351 257.558 201.202 258.221 201.202C258.902 201.202 259.518 201.365 260.069 201.692C260.629 202.019 261.068 202.481 261.385 203.078C261.702 203.666 261.861 204.352 261.861 205.136C261.861 205.911 261.702 206.601 261.385 207.208C261.068 207.815 260.629 208.286 260.069 208.622C259.518 208.958 258.902 209.126 258.221 209.126C257.568 209.126 256.989 208.981 256.485 208.692C255.99 208.393 255.612 208.025 255.351 207.586V212.64H254.077V201.328H255.351V202.742ZM260.559 205.136C260.559 204.557 260.442 204.053 260.209 203.624C259.976 203.195 259.658 202.868 259.257 202.644C258.865 202.42 258.431 202.308 257.955 202.308C257.488 202.308 257.054 202.425 256.653 202.658C256.261 202.882 255.944 203.213 255.701 203.652C255.468 204.081 255.351 204.581 255.351 205.15C255.351 205.729 255.468 206.237 255.701 206.676C255.944 207.105 256.261 207.437 256.653 207.67C257.054 207.894 257.488 208.006 257.955 208.006C258.431 208.006 258.865 207.894 259.257 207.67C259.658 207.437 259.976 207.105 260.209 206.676C260.442 206.237 260.559 205.724 260.559 205.136ZM264.196 200.082C263.953 200.082 263.748 199.998 263.58 199.83C263.412 199.662 263.328 199.457 263.328 199.214C263.328 198.971 263.412 198.766 263.58 198.598C263.748 198.43 263.953 198.346 264.196 198.346C264.429 198.346 264.625 198.43 264.784 198.598C264.952 198.766 265.036 198.971 265.036 199.214C265.036 199.457 264.952 199.662 264.784 199.83C264.625 199.998 264.429 200.082 264.196 200.082ZM264.812 201.328V209H263.538V201.328H264.812ZM266.507 205.15C266.507 204.357 266.666 203.666 266.983 203.078C267.301 202.481 267.739 202.019 268.299 201.692C268.869 201.365 269.517 201.202 270.245 201.202C271.188 201.202 271.963 201.431 272.569 201.888C273.185 202.345 273.591 202.98 273.787 203.792H272.415C272.285 203.325 272.028 202.957 271.645 202.686C271.272 202.415 270.805 202.28 270.245 202.28C269.517 202.28 268.929 202.532 268.481 203.036C268.033 203.531 267.809 204.235 267.809 205.15C267.809 206.074 268.033 206.788 268.481 207.292C268.929 207.796 269.517 208.048 270.245 208.048C270.805 208.048 271.272 207.917 271.645 207.656C272.019 207.395 272.275 207.021 272.415 206.536H273.787C273.582 207.32 273.171 207.95 272.555 208.426C271.939 208.893 271.169 209.126 270.245 209.126C269.517 209.126 268.869 208.963 268.299 208.636C267.739 208.309 267.301 207.847 266.983 207.25C266.666 206.653 266.507 205.953 266.507 205.15ZM279.878 200.082C279.635 200.082 279.43 199.998 279.262 199.83C279.094 199.662 279.01 199.457 279.01 199.214C279.01 198.971 279.094 198.766 279.262 198.598C279.43 198.43 279.635 198.346 279.878 198.346C280.111 198.346 280.307 198.43 280.466 198.598C280.634 198.766 280.718 198.971 280.718 199.214C280.718 199.457 280.634 199.662 280.466 199.83C280.307 199.998 280.111 200.082 279.878 200.082ZM280.494 201.328V209H279.22V201.328H280.494ZM285.381 209.126C284.793 209.126 284.266 209.028 283.799 208.832C283.332 208.627 282.964 208.347 282.693 207.992C282.422 207.628 282.273 207.213 282.245 206.746H283.561C283.598 207.129 283.776 207.441 284.093 207.684C284.42 207.927 284.844 208.048 285.367 208.048C285.852 208.048 286.235 207.941 286.515 207.726C286.795 207.511 286.935 207.241 286.935 206.914C286.935 206.578 286.786 206.331 286.487 206.172C286.188 206.004 285.726 205.841 285.101 205.682C284.532 205.533 284.065 205.383 283.701 205.234C283.346 205.075 283.038 204.847 282.777 204.548C282.525 204.24 282.399 203.839 282.399 203.344C282.399 202.952 282.516 202.593 282.749 202.266C282.982 201.939 283.314 201.683 283.743 201.496C284.172 201.3 284.662 201.202 285.213 201.202C286.062 201.202 286.748 201.417 287.271 201.846C287.794 202.275 288.074 202.863 288.111 203.61H286.837C286.809 203.209 286.646 202.887 286.347 202.644C286.058 202.401 285.666 202.28 285.171 202.28C284.714 202.28 284.35 202.378 284.079 202.574C283.808 202.77 283.673 203.027 283.673 203.344C283.673 203.596 283.752 203.806 283.911 203.974C284.079 204.133 284.284 204.263 284.527 204.366C284.779 204.459 285.124 204.567 285.563 204.688C286.114 204.837 286.562 204.987 286.907 205.136C287.252 205.276 287.546 205.491 287.789 205.78C288.041 206.069 288.172 206.447 288.181 206.914C288.181 207.334 288.064 207.712 287.831 208.048C287.598 208.384 287.266 208.65 286.837 208.846C286.417 209.033 285.932 209.126 285.381 209.126ZM291.295 207.236L289.727 211.002H288.873L289.895 207.236H291.295ZM86.9865 222.328L84.5925 230H83.2765L81.4285 223.91L79.5805 230H78.2645L75.8565 222.328H77.1585L78.9225 228.768L80.8265 222.328H82.1285L83.9905 228.782L85.7265 222.328H86.9865ZM95.2509 225.87C95.2509 226.113 95.2369 226.369 95.2089 226.64H89.0769C89.1235 227.396 89.3802 227.989 89.8469 228.418C90.3229 228.838 90.8969 229.048 91.5689 229.048C92.1195 229.048 92.5769 228.922 92.9409 228.67C93.3142 228.409 93.5755 228.063 93.7249 227.634H95.0969C94.8915 228.371 94.4809 228.973 93.8649 229.44C93.2489 229.897 92.4835 230.126 91.5689 230.126C90.8409 230.126 90.1875 229.963 89.6089 229.636C89.0395 229.309 88.5915 228.847 88.2649 228.25C87.9382 227.643 87.7749 226.943 87.7749 226.15C87.7749 225.357 87.9335 224.661 88.2509 224.064C88.5682 223.467 89.0115 223.009 89.5809 222.692C90.1595 222.365 90.8222 222.202 91.5689 222.202C92.2969 222.202 92.9409 222.361 93.5009 222.678C94.0609 222.995 94.4902 223.434 94.7889 223.994C95.0969 224.545 95.2509 225.17 95.2509 225.87ZM93.9349 225.604C93.9349 225.119 93.8275 224.703 93.6129 224.358C93.3982 224.003 93.1042 223.737 92.7309 223.56C92.3669 223.373 91.9609 223.28 91.5129 223.28C90.8689 223.28 90.3182 223.485 89.8609 223.896C89.4129 224.307 89.1562 224.876 89.0909 225.604H93.9349ZM100.189 226.136C100.189 225.352 100.348 224.666 100.665 224.078C100.982 223.481 101.416 223.019 101.967 222.692C102.527 222.365 103.148 222.202 103.829 222.202C104.501 222.202 105.084 222.347 105.579 222.636C106.074 222.925 106.442 223.289 106.685 223.728V222.328H107.973V230H106.685V228.572C106.433 229.02 106.055 229.393 105.551 229.692C105.056 229.981 104.478 230.126 103.815 230.126C103.134 230.126 102.518 229.958 101.967 229.622C101.416 229.286 100.982 228.815 100.665 228.208C100.348 227.601 100.189 226.911 100.189 226.136ZM106.685 226.15C106.685 225.571 106.568 225.067 106.335 224.638C106.102 224.209 105.784 223.882 105.383 223.658C104.991 223.425 104.557 223.308 104.081 223.308C103.605 223.308 103.171 223.42 102.779 223.644C102.387 223.868 102.074 224.195 101.841 224.624C101.608 225.053 101.491 225.557 101.491 226.136C101.491 226.724 101.608 227.237 101.841 227.676C102.074 228.105 102.387 228.437 102.779 228.67C103.171 228.894 103.605 229.006 104.081 229.006C104.557 229.006 104.991 228.894 105.383 228.67C105.784 228.437 106.102 228.105 106.335 227.676C106.568 227.237 106.685 226.729 106.685 226.15ZM111.4 223.574C111.624 223.135 111.941 222.795 112.352 222.552C112.772 222.309 113.281 222.188 113.878 222.188V223.504H113.542C112.114 223.504 111.4 224.279 111.4 225.828V230H110.126V222.328H111.4V223.574ZM122.349 225.87C122.349 226.113 122.335 226.369 122.307 226.64H116.175C116.221 227.396 116.478 227.989 116.945 228.418C117.421 228.838 117.995 229.048 118.667 229.048C119.217 229.048 119.675 228.922 120.039 228.67C120.412 228.409 120.673 228.063 120.823 227.634H122.195C121.989 228.371 121.579 228.973 120.963 229.44C120.347 229.897 119.581 230.126 118.667 230.126C117.939 230.126 117.285 229.963 116.707 229.636C116.137 229.309 115.689 228.847 115.363 228.25C115.036 227.643 114.873 226.943 114.873 226.15C114.873 225.357 115.031 224.661 115.349 224.064C115.666 223.467 116.109 223.009 116.679 222.692C117.257 222.365 117.92 222.202 118.667 222.202C119.395 222.202 120.039 222.361 120.599 222.678C121.159 222.995 121.588 223.434 121.887 223.994C122.195 224.545 122.349 225.17 122.349 225.87ZM121.033 225.604C121.033 225.119 120.925 224.703 120.711 224.358C120.496 224.003 120.202 223.737 119.829 223.56C119.465 223.373 119.059 223.28 118.611 223.28C117.967 223.28 117.416 223.485 116.959 223.896C116.511 224.307 116.254 224.876 116.189 225.604H121.033ZM131.571 222.188C132.149 222.188 132.672 222.314 133.139 222.566C133.605 222.809 133.969 223.177 134.231 223.672C134.501 224.167 134.637 224.769 134.637 225.478V230H133.377V225.66C133.377 224.895 133.185 224.311 132.803 223.91C132.42 223.499 131.897 223.294 131.235 223.294C130.563 223.294 130.026 223.504 129.625 223.924C129.233 224.344 129.037 224.955 129.037 225.758V230H127.763V219.64H129.037V223.42C129.289 223.028 129.634 222.725 130.073 222.51C130.521 222.295 131.02 222.188 131.571 222.188ZM143.718 225.87C143.718 226.113 143.704 226.369 143.676 226.64H137.544C137.59 227.396 137.847 227.989 138.314 228.418C138.79 228.838 139.364 229.048 140.036 229.048C140.586 229.048 141.044 228.922 141.408 228.67C141.781 228.409 142.042 228.063 142.192 227.634H143.564C143.358 228.371 142.948 228.973 142.332 229.44C141.716 229.897 140.95 230.126 140.036 230.126C139.308 230.126 138.654 229.963 138.076 229.636C137.506 229.309 137.058 228.847 136.732 228.25C136.405 227.643 136.242 226.943 136.242 226.15C136.242 225.357 136.4 224.661 136.718 224.064C137.035 223.467 137.478 223.009 138.048 222.692C138.626 222.365 139.289 222.202 140.036 222.202C140.764 222.202 141.408 222.361 141.968 222.678C142.528 222.995 142.957 223.434 143.256 223.994C143.564 224.545 143.718 225.17 143.718 225.87ZM142.402 225.604C142.402 225.119 142.294 224.703 142.08 224.358C141.865 224.003 141.571 223.737 141.198 223.56C140.834 223.373 140.428 223.28 139.98 223.28C139.336 223.28 138.785 223.485 138.328 223.896C137.88 224.307 137.623 224.876 137.558 225.604H142.402ZM146.673 223.574C146.897 223.135 147.215 222.795 147.625 222.552C148.045 222.309 148.554 222.188 149.151 222.188V223.504H148.815C147.387 223.504 146.673 224.279 146.673 225.828V230H145.399V222.328H146.673V223.574ZM157.622 225.87C157.622 226.113 157.608 226.369 157.58 226.64H151.448C151.495 227.396 151.751 227.989 152.218 228.418C152.694 228.838 153.268 229.048 153.94 229.048C154.491 229.048 154.948 228.922 155.312 228.67C155.685 228.409 155.947 228.063 156.096 227.634H157.468C157.263 228.371 156.852 228.973 156.236 229.44C155.62 229.897 154.855 230.126 153.94 230.126C153.212 230.126 152.559 229.963 151.98 229.636C151.411 229.309 150.963 228.847 150.636 228.25C150.309 227.643 150.146 226.943 150.146 226.15C150.146 225.357 150.305 224.661 150.622 224.064C150.939 223.467 151.383 223.009 151.952 222.692C152.531 222.365 153.193 222.202 153.94 222.202C154.668 222.202 155.312 222.361 155.872 222.678C156.432 222.995 156.861 223.434 157.16 223.994C157.468 224.545 157.622 225.17 157.622 225.87ZM156.306 225.604C156.306 225.119 156.199 224.703 155.984 224.358C155.769 224.003 155.475 223.737 155.102 223.56C154.738 223.373 154.332 223.28 153.884 223.28C153.24 223.28 152.689 223.485 152.232 223.896C151.784 224.307 151.527 224.876 151.462 225.604H156.306ZM164.59 223.378V227.9C164.59 228.273 164.669 228.539 164.828 228.698C164.987 228.847 165.262 228.922 165.654 228.922H166.592V230H165.444C164.735 230 164.203 229.837 163.848 229.51C163.493 229.183 163.316 228.647 163.316 227.9V223.378H162.322V222.328H163.316V220.396H164.59V222.328H166.592V223.378H164.59ZM171.482 230.126C170.763 230.126 170.11 229.963 169.522 229.636C168.943 229.309 168.486 228.847 168.15 228.25C167.823 227.643 167.66 226.943 167.66 226.15C167.66 225.366 167.828 224.675 168.164 224.078C168.509 223.471 168.976 223.009 169.564 222.692C170.152 222.365 170.81 222.202 171.538 222.202C172.266 222.202 172.924 222.365 173.512 222.692C174.1 223.009 174.562 223.467 174.898 224.064C175.243 224.661 175.416 225.357 175.416 226.15C175.416 226.943 175.238 227.643 174.884 228.25C174.538 228.847 174.067 229.309 173.47 229.636C172.872 229.963 172.21 230.126 171.482 230.126ZM171.482 229.006C171.939 229.006 172.368 228.899 172.77 228.684C173.171 228.469 173.493 228.147 173.736 227.718C173.988 227.289 174.114 226.766 174.114 226.15C174.114 225.534 173.992 225.011 173.75 224.582C173.507 224.153 173.19 223.835 172.798 223.63C172.406 223.415 171.981 223.308 171.524 223.308C171.057 223.308 170.628 223.415 170.236 223.63C169.853 223.835 169.545 224.153 169.312 224.582C169.078 225.011 168.962 225.534 168.962 226.15C168.962 226.775 169.074 227.303 169.298 227.732C169.531 228.161 169.839 228.483 170.222 228.698C170.604 228.903 171.024 229.006 171.482 229.006ZM184.631 222.188C185.21 222.188 185.732 222.314 186.199 222.566C186.666 222.809 187.03 223.177 187.291 223.672C187.562 224.167 187.697 224.769 187.697 225.478V230H186.437V225.66C186.437 224.895 186.246 224.311 185.863 223.91C185.48 223.499 184.958 223.294 184.295 223.294C183.623 223.294 183.086 223.504 182.685 223.924C182.293 224.344 182.097 224.955 182.097 225.758V230H180.823V219.64H182.097V223.42C182.349 223.028 182.694 222.725 183.133 222.51C183.581 222.295 184.08 222.188 184.631 222.188ZM196.778 225.87C196.778 226.113 196.764 226.369 196.736 226.64H190.604C190.651 227.396 190.908 227.989 191.374 228.418C191.85 228.838 192.424 229.048 193.096 229.048C193.647 229.048 194.104 228.922 194.468 228.67C194.842 228.409 195.103 228.063 195.252 227.634H196.624C196.419 228.371 196.008 228.973 195.392 229.44C194.776 229.897 194.011 230.126 193.096 230.126C192.368 230.126 191.715 229.963 191.136 229.636C190.567 229.309 190.119 228.847 189.792 228.25C189.466 227.643 189.302 226.943 189.302 226.15C189.302 225.357 189.461 224.661 189.778 224.064C190.096 223.467 190.539 223.009 191.108 222.692C191.687 222.365 192.35 222.202 193.096 222.202C193.824 222.202 194.468 222.361 195.028 222.678C195.588 222.995 196.018 223.434 196.316 223.994C196.624 224.545 196.778 225.17 196.778 225.87ZM195.462 225.604C195.462 225.119 195.355 224.703 195.14 224.358C194.926 224.003 194.632 223.737 194.258 223.56C193.894 223.373 193.488 223.28 193.04 223.28C192.396 223.28 191.846 223.485 191.388 223.896C190.94 224.307 190.684 224.876 190.618 225.604H195.462ZM199.734 219.64V230H198.46V219.64H199.734ZM203.179 223.742C203.431 223.303 203.804 222.939 204.299 222.65C204.803 222.351 205.386 222.202 206.049 222.202C206.73 222.202 207.346 222.365 207.897 222.692C208.457 223.019 208.896 223.481 209.213 224.078C209.53 224.666 209.689 225.352 209.689 226.136C209.689 226.911 209.53 227.601 209.213 228.208C208.896 228.815 208.457 229.286 207.897 229.622C207.346 229.958 206.73 230.126 206.049 230.126C205.396 230.126 204.817 229.981 204.313 229.692C203.818 229.393 203.44 229.025 203.179 228.586V233.64H201.905V222.328H203.179V223.742ZM208.387 226.136C208.387 225.557 208.27 225.053 208.037 224.624C207.804 224.195 207.486 223.868 207.085 223.644C206.693 223.42 206.259 223.308 205.783 223.308C205.316 223.308 204.882 223.425 204.481 223.658C204.089 223.882 203.772 224.213 203.529 224.652C203.296 225.081 203.179 225.581 203.179 226.15C203.179 226.729 203.296 227.237 203.529 227.676C203.772 228.105 204.089 228.437 204.481 228.67C204.882 228.894 205.316 229.006 205.783 229.006C206.259 229.006 206.693 228.894 207.085 228.67C207.486 228.437 207.804 228.105 208.037 227.676C208.27 227.237 208.387 226.724 208.387 226.136ZM213.018 220.242L212.864 227.242H211.8L211.646 220.242H213.018ZM212.388 230.084C212.145 230.084 211.94 230 211.772 229.832C211.604 229.664 211.52 229.459 211.52 229.216C211.52 228.973 211.604 228.768 211.772 228.6C211.94 228.432 212.145 228.348 212.388 228.348C212.621 228.348 212.817 228.432 212.976 228.6C213.144 228.768 213.228 228.973 213.228 229.216C213.228 229.459 213.144 229.664 212.976 229.832C212.817 230 212.621 230.084 212.388 230.084ZM224.406 230L222.082 226.01H220.542V230H219.268V220.242H222.418C223.156 220.242 223.776 220.368 224.28 220.62C224.794 220.872 225.176 221.213 225.428 221.642C225.68 222.071 225.806 222.561 225.806 223.112C225.806 223.784 225.61 224.377 225.218 224.89C224.836 225.403 224.257 225.744 223.482 225.912L225.932 230H224.406ZM220.542 224.988H222.418C223.109 224.988 223.627 224.82 223.972 224.484C224.318 224.139 224.49 223.681 224.49 223.112C224.49 222.533 224.318 222.085 223.972 221.768C223.636 221.451 223.118 221.292 222.418 221.292H220.542V224.988ZM234.786 225.87C234.786 226.113 234.772 226.369 234.744 226.64H228.612C228.659 227.396 228.915 227.989 229.382 228.418C229.858 228.838 230.432 229.048 231.104 229.048C231.655 229.048 232.112 228.922 232.476 228.67C232.849 228.409 233.111 228.063 233.26 227.634H234.632C234.427 228.371 234.016 228.973 233.4 229.44C232.784 229.897 232.019 230.126 231.104 230.126C230.376 230.126 229.723 229.963 229.144 229.636C228.575 229.309 228.127 228.847 227.8 228.25C227.473 227.643 227.31 226.943 227.31 226.15C227.31 225.357 227.469 224.661 227.786 224.064C228.103 223.467 228.547 223.009 229.116 222.692C229.695 222.365 230.357 222.202 231.104 222.202C231.832 222.202 232.476 222.361 233.036 222.678C233.596 222.995 234.025 223.434 234.324 223.994C234.632 224.545 234.786 225.17 234.786 225.87ZM233.47 225.604C233.47 225.119 233.363 224.703 233.148 224.358C232.933 224.003 232.639 223.737 232.266 223.56C231.902 223.373 231.496 223.28 231.048 223.28C230.404 223.28 229.853 223.485 229.396 223.896C228.948 224.307 228.691 224.876 228.626 225.604H233.47ZM235.992 226.136C235.992 225.352 236.15 224.666 236.468 224.078C236.785 223.481 237.219 223.019 237.77 222.692C238.33 222.365 238.95 222.202 239.632 222.202C240.304 222.202 240.887 222.347 241.382 222.636C241.876 222.925 242.245 223.289 242.488 223.728V222.328H243.776V230H242.488V228.572C242.236 229.02 241.858 229.393 241.354 229.692C240.859 229.981 240.28 230.126 239.618 230.126C238.936 230.126 238.32 229.958 237.77 229.622C237.219 229.286 236.785 228.815 236.468 228.208C236.15 227.601 235.992 226.911 235.992 226.136ZM242.488 226.15C242.488 225.571 242.371 225.067 242.138 224.638C241.904 224.209 241.587 223.882 241.186 223.658C240.794 223.425 240.36 223.308 239.884 223.308C239.408 223.308 238.974 223.42 238.582 223.644C238.19 223.868 237.877 224.195 237.644 224.624C237.41 225.053 237.294 225.557 237.294 226.136C237.294 226.724 237.41 227.237 237.644 227.676C237.877 228.105 238.19 228.437 238.582 228.67C238.974 228.894 239.408 229.006 239.884 229.006C240.36 229.006 240.794 228.894 241.186 228.67C241.587 228.437 241.904 228.105 242.138 227.676C242.371 227.237 242.488 226.729 242.488 226.15ZM245.453 226.15C245.453 225.357 245.611 224.666 245.929 224.078C246.246 223.481 246.685 223.019 247.245 222.692C247.814 222.365 248.463 222.202 249.191 222.202C250.133 222.202 250.908 222.431 251.515 222.888C252.131 223.345 252.537 223.98 252.733 224.792H251.361C251.23 224.325 250.973 223.957 250.591 223.686C250.217 223.415 249.751 223.28 249.191 223.28C248.463 223.28 247.875 223.532 247.427 224.036C246.979 224.531 246.755 225.235 246.755 226.15C246.755 227.074 246.979 227.788 247.427 228.292C247.875 228.796 248.463 229.048 249.191 229.048C249.751 229.048 250.217 228.917 250.591 228.656C250.964 228.395 251.221 228.021 251.361 227.536H252.733C252.527 228.32 252.117 228.95 251.501 229.426C250.885 229.893 250.115 230.126 249.191 230.126C248.463 230.126 247.814 229.963 247.245 229.636C246.685 229.309 246.246 228.847 245.929 228.25C245.611 227.653 245.453 226.953 245.453 226.15ZM258.24 222.188C258.819 222.188 259.342 222.314 259.808 222.566C260.275 222.809 260.639 223.177 260.9 223.672C261.171 224.167 261.306 224.769 261.306 225.478V230H260.046V225.66C260.046 224.895 259.855 224.311 259.472 223.91C259.09 223.499 258.567 223.294 257.904 223.294C257.232 223.294 256.696 223.504 256.294 223.924C255.902 224.344 255.706 224.955 255.706 225.758V230H254.432V219.64H255.706V223.42C255.958 223.028 256.304 222.725 256.742 222.51C257.19 222.295 257.69 222.188 258.24 222.188ZM273.924 222.328V230H272.65V228.866C272.407 229.258 272.067 229.566 271.628 229.79C271.199 230.005 270.723 230.112 270.2 230.112C269.603 230.112 269.066 229.991 268.59 229.748C268.114 229.496 267.736 229.123 267.456 228.628C267.185 228.133 267.05 227.531 267.05 226.822V222.328H268.31V226.654C268.31 227.41 268.501 227.993 268.884 228.404C269.267 228.805 269.789 229.006 270.452 229.006C271.133 229.006 271.67 228.796 272.062 228.376C272.454 227.956 272.65 227.345 272.65 226.542V222.328H273.924ZM278.791 230.126C278.203 230.126 277.676 230.028 277.209 229.832C276.742 229.627 276.374 229.347 276.103 228.992C275.832 228.628 275.683 228.213 275.655 227.746H276.971C277.008 228.129 277.186 228.441 277.503 228.684C277.83 228.927 278.254 229.048 278.777 229.048C279.262 229.048 279.645 228.941 279.925 228.726C280.205 228.511 280.345 228.241 280.345 227.914C280.345 227.578 280.196 227.331 279.897 227.172C279.598 227.004 279.136 226.841 278.511 226.682C277.942 226.533 277.475 226.383 277.111 226.234C276.756 226.075 276.448 225.847 276.187 225.548C275.935 225.24 275.809 224.839 275.809 224.344C275.809 223.952 275.926 223.593 276.159 223.266C276.392 222.939 276.724 222.683 277.153 222.496C277.582 222.3 278.072 222.202 278.623 222.202C279.472 222.202 280.158 222.417 280.681 222.846C281.204 223.275 281.484 223.863 281.521 224.61H280.247C280.219 224.209 280.056 223.887 279.757 223.644C279.468 223.401 279.076 223.28 278.581 223.28C278.124 223.28 277.76 223.378 277.489 223.574C277.218 223.77 277.083 224.027 277.083 224.344C277.083 224.596 277.162 224.806 277.321 224.974C277.489 225.133 277.694 225.263 277.937 225.366C278.189 225.459 278.534 225.567 278.973 225.688C279.524 225.837 279.972 225.987 280.317 226.136C280.662 226.276 280.956 226.491 281.199 226.78C281.451 227.069 281.582 227.447 281.591 227.914C281.591 228.334 281.474 228.712 281.241 229.048C281.008 229.384 280.676 229.65 280.247 229.846C279.827 230.033 279.342 230.126 278.791 230.126ZM99.8332 244.378V248.9C99.8332 249.273 99.9125 249.539 100.071 249.698C100.23 249.847 100.505 249.922 100.897 249.922H101.835V251H100.687C99.9778 251 99.4458 250.837 99.0912 250.51C98.7365 250.183 98.5592 249.647 98.5592 248.9V244.378H97.5652V243.328H98.5592V241.396H99.8332V243.328H101.835V244.378H99.8332ZM107.187 243.188C107.765 243.188 108.288 243.314 108.755 243.566C109.221 243.809 109.585 244.177 109.847 244.672C110.117 245.167 110.253 245.769 110.253 246.478V251H108.993V246.66C108.993 245.895 108.801 245.311 108.419 244.91C108.036 244.499 107.513 244.294 106.851 244.294C106.179 244.294 105.642 244.504 105.241 244.924C104.849 245.344 104.653 245.955 104.653 246.758V251H103.379V240.64H104.653V244.42C104.905 244.028 105.25 243.725 105.689 243.51C106.137 243.295 106.636 243.188 107.187 243.188ZM113.608 244.574C113.832 244.135 114.149 243.795 114.56 243.552C114.98 243.309 115.489 243.188 116.086 243.188V244.504H115.75C114.322 244.504 113.608 245.279 113.608 246.828V251H112.334V243.328H113.608V244.574ZM120.903 251.126C120.184 251.126 119.531 250.963 118.943 250.636C118.364 250.309 117.907 249.847 117.571 249.25C117.244 248.643 117.081 247.943 117.081 247.15C117.081 246.366 117.249 245.675 117.585 245.078C117.93 244.471 118.397 244.009 118.985 243.692C119.573 243.365 120.231 243.202 120.959 243.202C121.687 243.202 122.345 243.365 122.933 243.692C123.521 244.009 123.983 244.467 124.319 245.064C124.664 245.661 124.837 246.357 124.837 247.15C124.837 247.943 124.659 248.643 124.305 249.25C123.959 249.847 123.488 250.309 122.891 250.636C122.293 250.963 121.631 251.126 120.903 251.126ZM120.903 250.006C121.36 250.006 121.789 249.899 122.191 249.684C122.592 249.469 122.914 249.147 123.157 248.718C123.409 248.289 123.535 247.766 123.535 247.15C123.535 246.534 123.413 246.011 123.171 245.582C122.928 245.153 122.611 244.835 122.219 244.63C121.827 244.415 121.402 244.308 120.945 244.308C120.478 244.308 120.049 244.415 119.657 244.63C119.274 244.835 118.966 245.153 118.733 245.582C118.499 246.011 118.383 246.534 118.383 247.15C118.383 247.775 118.495 248.303 118.719 248.732C118.952 249.161 119.26 249.483 119.643 249.698C120.025 249.903 120.445 250.006 120.903 250.006ZM133.316 243.328V251H132.042V249.866C131.799 250.258 131.458 250.566 131.02 250.79C130.59 251.005 130.114 251.112 129.592 251.112C128.994 251.112 128.458 250.991 127.982 250.748C127.506 250.496 127.128 250.123 126.848 249.628C126.577 249.133 126.442 248.531 126.442 247.822V243.328H127.702V247.654C127.702 248.41 127.893 248.993 128.276 249.404C128.658 249.805 129.181 250.006 129.844 250.006C130.525 250.006 131.062 249.796 131.454 249.376C131.846 248.956 132.042 248.345 132.042 247.542V243.328H133.316ZM138.631 243.202C139.293 243.202 139.872 243.347 140.367 243.636C140.871 243.925 141.244 244.289 141.487 244.728V243.328H142.775V251.168C142.775 251.868 142.625 252.489 142.327 253.03C142.028 253.581 141.599 254.01 141.039 254.318C140.488 254.626 139.844 254.78 139.107 254.78C138.099 254.78 137.259 254.542 136.587 254.066C135.915 253.59 135.518 252.941 135.397 252.12H136.657C136.797 252.587 137.086 252.96 137.525 253.24C137.963 253.529 138.491 253.674 139.107 253.674C139.807 253.674 140.376 253.455 140.815 253.016C141.263 252.577 141.487 251.961 141.487 251.168V249.558C141.235 250.006 140.861 250.379 140.367 250.678C139.872 250.977 139.293 251.126 138.631 251.126C137.949 251.126 137.329 250.958 136.769 250.622C136.218 250.286 135.784 249.815 135.467 249.208C135.149 248.601 134.991 247.911 134.991 247.136C134.991 246.352 135.149 245.666 135.467 245.078C135.784 244.481 136.218 244.019 136.769 243.692C137.329 243.365 137.949 243.202 138.631 243.202ZM141.487 247.15C141.487 246.571 141.37 246.067 141.137 245.638C140.903 245.209 140.586 244.882 140.185 244.658C139.793 244.425 139.359 244.308 138.883 244.308C138.407 244.308 137.973 244.42 137.581 244.644C137.189 244.868 136.876 245.195 136.643 245.624C136.409 246.053 136.293 246.557 136.293 247.136C136.293 247.724 136.409 248.237 136.643 248.676C136.876 249.105 137.189 249.437 137.581 249.67C137.973 249.894 138.407 250.006 138.883 250.006C139.359 250.006 139.793 249.894 140.185 249.67C140.586 249.437 140.903 249.105 141.137 248.676C141.37 248.237 141.487 247.729 141.487 247.15ZM148.736 243.188C149.314 243.188 149.837 243.314 150.304 243.566C150.77 243.809 151.134 244.177 151.396 244.672C151.666 245.167 151.802 245.769 151.802 246.478V251H150.542V246.66C150.542 245.895 150.35 245.311 149.968 244.91C149.585 244.499 149.062 244.294 148.4 244.294C147.728 244.294 147.191 244.504 146.79 244.924C146.398 245.344 146.202 245.955 146.202 246.758V251H144.928V240.64H146.202V244.42C146.454 244.028 146.799 243.725 147.238 243.51C147.686 243.295 148.185 243.188 148.736 243.188ZM160.961 251.126C160.242 251.126 159.589 250.963 159.001 250.636C158.422 250.309 157.965 249.847 157.629 249.25C157.302 248.643 157.139 247.943 157.139 247.15C157.139 246.366 157.307 245.675 157.643 245.078C157.988 244.471 158.455 244.009 159.043 243.692C159.631 243.365 160.289 243.202 161.017 243.202C161.745 243.202 162.403 243.365 162.991 243.692C163.579 244.009 164.041 244.467 164.377 245.064C164.722 245.661 164.895 246.357 164.895 247.15C164.895 247.943 164.718 248.643 164.363 249.25C164.018 249.847 163.546 250.309 162.949 250.636C162.352 250.963 161.689 251.126 160.961 251.126ZM160.961 250.006C161.418 250.006 161.848 249.899 162.249 249.684C162.65 249.469 162.972 249.147 163.215 248.718C163.467 248.289 163.593 247.766 163.593 247.15C163.593 246.534 163.472 246.011 163.229 245.582C162.986 245.153 162.669 244.835 162.277 244.63C161.885 244.415 161.46 244.308 161.003 244.308C160.536 244.308 160.107 244.415 159.715 244.63C159.332 244.835 159.024 245.153 158.791 245.582C158.558 246.011 158.441 246.534 158.441 247.15C158.441 247.775 158.553 248.303 158.777 248.732C159.01 249.161 159.318 249.483 159.701 249.698C160.084 249.903 160.504 250.006 160.961 250.006ZM173.374 243.328V251H172.1V249.866C171.858 250.258 171.517 250.566 171.078 250.79C170.649 251.005 170.173 251.112 169.65 251.112C169.053 251.112 168.516 250.991 168.04 250.748C167.564 250.496 167.186 250.123 166.906 249.628C166.636 249.133 166.5 248.531 166.5 247.822V243.328H167.76V247.654C167.76 248.41 167.952 248.993 168.334 249.404C168.717 249.805 169.24 250.006 169.902 250.006C170.584 250.006 171.12 249.796 171.512 249.376C171.904 248.956 172.1 248.345 172.1 247.542V243.328H173.374ZM176.799 244.574C177.023 244.135 177.341 243.795 177.751 243.552C178.171 243.309 178.68 243.188 179.277 243.188V244.504H178.941C177.513 244.504 176.799 245.279 176.799 246.828V251H175.525V243.328H176.799V244.574ZM184.004 247.15C184.004 246.357 184.163 245.666 184.48 245.078C184.798 244.481 185.236 244.019 185.796 243.692C186.366 243.365 187.014 243.202 187.742 243.202C188.685 243.202 189.46 243.431 190.066 243.888C190.682 244.345 191.088 244.98 191.284 245.792H189.912C189.782 245.325 189.525 244.957 189.142 244.686C188.769 244.415 188.302 244.28 187.742 244.28C187.014 244.28 186.426 244.532 185.978 245.036C185.53 245.531 185.306 246.235 185.306 247.15C185.306 248.074 185.53 248.788 185.978 249.292C186.426 249.796 187.014 250.048 187.742 250.048C188.302 250.048 188.769 249.917 189.142 249.656C189.516 249.395 189.772 249.021 189.912 248.536H191.284C191.079 249.32 190.668 249.95 190.052 250.426C189.436 250.893 188.666 251.126 187.742 251.126C187.014 251.126 186.366 250.963 185.796 250.636C185.236 250.309 184.798 249.847 184.48 249.25C184.163 248.653 184.004 247.953 184.004 247.15ZM196.792 243.188C197.371 243.188 197.894 243.314 198.36 243.566C198.827 243.809 199.191 244.177 199.452 244.672C199.723 245.167 199.858 245.769 199.858 246.478V251H198.598V246.66C198.598 245.895 198.407 245.311 198.024 244.91C197.642 244.499 197.119 244.294 196.456 244.294C195.784 244.294 195.248 244.504 194.846 244.924C194.454 245.344 194.258 245.955 194.258 246.758V251H192.984V240.64H194.258V244.42C194.51 244.028 194.856 243.725 195.294 243.51C195.742 243.295 196.242 243.188 196.792 243.188ZM201.463 247.136C201.463 246.352 201.622 245.666 201.939 245.078C202.257 244.481 202.691 244.019 203.241 243.692C203.801 243.365 204.422 243.202 205.103 243.202C205.775 243.202 206.359 243.347 206.853 243.636C207.348 243.925 207.717 244.289 207.959 244.728V243.328H209.247V251H207.959V249.572C207.707 250.02 207.329 250.393 206.825 250.692C206.331 250.981 205.752 251.126 205.089 251.126C204.408 251.126 203.792 250.958 203.241 250.622C202.691 250.286 202.257 249.815 201.939 249.208C201.622 248.601 201.463 247.911 201.463 247.136ZM207.959 247.15C207.959 246.571 207.843 246.067 207.609 245.638C207.376 245.209 207.059 244.882 206.657 244.658C206.265 244.425 205.831 244.308 205.355 244.308C204.879 244.308 204.445 244.42 204.053 244.644C203.661 244.868 203.349 245.195 203.115 245.624C202.882 246.053 202.765 246.557 202.765 247.136C202.765 247.724 202.882 248.237 203.115 248.676C203.349 249.105 203.661 249.437 204.053 249.67C204.445 249.894 204.879 250.006 205.355 250.006C205.831 250.006 206.265 249.894 206.657 249.67C207.059 249.437 207.376 249.105 207.609 248.676C207.843 248.237 207.959 247.729 207.959 247.15ZM212.954 244.378V248.9C212.954 249.273 213.034 249.539 213.192 249.698C213.351 249.847 213.626 249.922 214.018 249.922H214.956V251H213.808C213.099 251 212.567 250.837 212.212 250.51C211.858 250.183 211.68 249.647 211.68 248.9V244.378H210.686V243.328H211.68V241.396H212.954V243.328H214.956V244.378H212.954ZM221.506 244.742C221.758 244.303 222.132 243.939 222.626 243.65C223.13 243.351 223.714 243.202 224.376 243.202C225.058 243.202 225.674 243.365 226.224 243.692C226.784 244.019 227.223 244.481 227.54 245.078C227.858 245.666 228.016 246.352 228.016 247.136C228.016 247.911 227.858 248.601 227.54 249.208C227.223 249.815 226.784 250.286 226.224 250.622C225.674 250.958 225.058 251.126 224.376 251.126C223.723 251.126 223.144 250.981 222.64 250.692C222.146 250.393 221.768 250.025 221.506 249.586V254.64H220.232V243.328H221.506V244.742ZM226.714 247.136C226.714 246.557 226.598 246.053 226.364 245.624C226.131 245.195 225.814 244.868 225.412 244.644C225.02 244.42 224.586 244.308 224.11 244.308C223.644 244.308 223.21 244.425 222.808 244.658C222.416 244.882 222.099 245.213 221.856 245.652C221.623 246.081 221.506 246.581 221.506 247.15C221.506 247.729 221.623 248.237 221.856 248.676C222.099 249.105 222.416 249.437 222.808 249.67C223.21 249.894 223.644 250.006 224.11 250.006C224.586 250.006 225.02 249.894 225.412 249.67C225.814 249.437 226.131 249.105 226.364 248.676C226.598 248.237 226.714 247.724 226.714 247.136ZM233.039 251.126C232.321 251.126 231.667 250.963 231.079 250.636C230.501 250.309 230.043 249.847 229.707 249.25C229.381 248.643 229.217 247.943 229.217 247.15C229.217 246.366 229.385 245.675 229.721 245.078C230.067 244.471 230.533 244.009 231.121 243.692C231.709 243.365 232.367 243.202 233.095 243.202C233.823 243.202 234.481 243.365 235.069 243.692C235.657 244.009 236.119 244.467 236.455 245.064C236.801 245.661 236.973 246.357 236.973 247.15C236.973 247.943 236.796 248.643 236.441 249.25C236.096 249.847 235.625 250.309 235.027 250.636C234.43 250.963 233.767 251.126 233.039 251.126ZM233.039 250.006C233.497 250.006 233.926 249.899 234.327 249.684C234.729 249.469 235.051 249.147 235.293 248.718C235.545 248.289 235.671 247.766 235.671 247.15C235.671 246.534 235.55 246.011 235.307 245.582C235.065 245.153 234.747 244.835 234.355 244.63C233.963 244.415 233.539 244.308 233.081 244.308C232.615 244.308 232.185 244.415 231.793 244.63C231.411 244.835 231.103 245.153 230.869 245.582C230.636 246.011 230.519 246.534 230.519 247.15C230.519 247.775 230.631 248.303 230.855 248.732C231.089 249.161 231.397 249.483 231.779 249.698C232.162 249.903 232.582 250.006 233.039 250.006ZM239.922 244.574C240.146 244.135 240.464 243.795 240.874 243.552C241.294 243.309 241.803 243.188 242.4 243.188V244.504H242.064C240.636 244.504 239.922 245.279 239.922 246.828V251H238.648V243.328H239.922V244.574ZM245.425 244.378V248.9C245.425 249.273 245.504 249.539 245.663 249.698C245.822 249.847 246.097 249.922 246.489 249.922H247.427V251H246.279C245.57 251 245.038 250.837 244.683 250.51C244.328 250.183 244.151 249.647 244.151 248.9V244.378H243.157V243.328H244.151V241.396H245.425V243.328H247.427V244.378H245.425ZM248.495 247.136C248.495 246.352 248.653 245.666 248.971 245.078C249.288 244.481 249.722 244.019 250.273 243.692C250.833 243.365 251.453 243.202 252.135 243.202C252.807 243.202 253.39 243.347 253.885 243.636C254.379 243.925 254.748 244.289 254.991 244.728V243.328H256.279V251H254.991V249.572C254.739 250.02 254.361 250.393 253.857 250.692C253.362 250.981 252.783 251.126 252.121 251.126C251.439 251.126 250.823 250.958 250.273 250.622C249.722 250.286 249.288 249.815 248.971 249.208C248.653 248.601 248.495 247.911 248.495 247.136ZM254.991 247.15C254.991 246.571 254.874 246.067 254.641 245.638C254.407 245.209 254.09 244.882 253.689 244.658C253.297 244.425 252.863 244.308 252.387 244.308C251.911 244.308 251.477 244.42 251.085 244.644C250.693 244.868 250.38 245.195 250.147 245.624C249.913 246.053 249.797 246.557 249.797 247.136C249.797 247.724 249.913 248.237 250.147 248.676C250.38 249.105 250.693 249.437 251.085 249.67C251.477 249.894 251.911 250.006 252.387 250.006C252.863 250.006 253.297 249.894 253.689 249.67C254.09 249.437 254.407 249.105 254.641 248.676C254.874 248.237 254.991 247.729 254.991 247.15ZM259.706 240.64V251H258.432V240.64H259.706ZM111.236 268.136C111.236 267.352 111.394 266.666 111.712 266.078C112.029 265.481 112.463 265.019 113.014 264.692C113.574 264.365 114.194 264.202 114.876 264.202C115.548 264.202 116.131 264.347 116.626 264.636C117.12 264.925 117.489 265.289 117.732 265.728V264.328H119.02V272H117.732V270.572C117.48 271.02 117.102 271.393 116.598 271.692C116.103 271.981 115.524 272.126 114.862 272.126C114.18 272.126 113.564 271.958 113.014 271.622C112.463 271.286 112.029 270.815 111.712 270.208C111.394 269.601 111.236 268.911 111.236 268.136ZM117.732 268.15C117.732 267.571 117.615 267.067 117.382 266.638C117.148 266.209 116.831 265.882 116.43 265.658C116.038 265.425 115.604 265.308 115.128 265.308C114.652 265.308 114.218 265.42 113.826 265.644C113.434 265.868 113.121 266.195 112.888 266.624C112.654 267.053 112.538 267.557 112.538 268.136C112.538 268.724 112.654 269.237 112.888 269.676C113.121 270.105 113.434 270.437 113.826 270.67C114.218 270.894 114.652 271.006 115.128 271.006C115.604 271.006 116.038 270.894 116.43 270.67C116.831 270.437 117.148 270.105 117.382 269.676C117.615 269.237 117.732 268.729 117.732 268.15ZM124.911 264.188C125.844 264.188 126.6 264.473 127.179 265.042C127.757 265.602 128.047 266.414 128.047 267.478V272H126.787V267.66C126.787 266.895 126.595 266.311 126.213 265.91C125.83 265.499 125.307 265.294 124.645 265.294C123.973 265.294 123.436 265.504 123.035 265.924C122.643 266.344 122.447 266.955 122.447 267.758V272H121.173V264.328H122.447V265.42C122.699 265.028 123.039 264.725 123.469 264.51C123.907 264.295 124.388 264.188 124.911 264.188ZM136.736 264.328L132.116 275.612H130.8L132.312 271.916L129.218 264.328H130.632L133.04 270.544L135.42 264.328H136.736ZM139.57 265.378V269.9C139.57 270.273 139.65 270.539 139.808 270.698C139.967 270.847 140.242 270.922 140.634 270.922H141.572V272H140.424C139.715 272 139.183 271.837 138.828 271.51C138.474 271.183 138.296 270.647 138.296 269.9V265.378H137.302V264.328H138.296V262.396H139.57V264.328H141.572V265.378H139.57ZM143.774 263.082C143.531 263.082 143.326 262.998 143.158 262.83C142.99 262.662 142.906 262.457 142.906 262.214C142.906 261.971 142.99 261.766 143.158 261.598C143.326 261.43 143.531 261.346 143.774 261.346C144.007 261.346 144.203 261.43 144.362 261.598C144.53 261.766 144.614 261.971 144.614 262.214C144.614 262.457 144.53 262.662 144.362 262.83C144.203 262.998 144.007 263.082 143.774 263.082ZM144.39 264.328V272H143.116V264.328H144.39ZM155.787 264.188C156.385 264.188 156.917 264.314 157.383 264.566C157.85 264.809 158.219 265.177 158.489 265.672C158.76 266.167 158.895 266.769 158.895 267.478V272H157.635V267.66C157.635 266.895 157.444 266.311 157.061 265.91C156.688 265.499 156.179 265.294 155.535 265.294C154.873 265.294 154.345 265.509 153.953 265.938C153.561 266.358 153.365 266.969 153.365 267.772V272H152.105V267.66C152.105 266.895 151.914 266.311 151.531 265.91C151.158 265.499 150.649 265.294 150.005 265.294C149.343 265.294 148.815 265.509 148.423 265.938C148.031 266.358 147.835 266.969 147.835 267.772V272H146.561V264.328H147.835V265.434C148.087 265.033 148.423 264.725 148.843 264.51C149.273 264.295 149.744 264.188 150.257 264.188C150.901 264.188 151.471 264.333 151.965 264.622C152.46 264.911 152.829 265.336 153.071 265.896C153.286 265.355 153.641 264.935 154.135 264.636C154.63 264.337 155.181 264.188 155.787 264.188ZM167.985 267.87C167.985 268.113 167.971 268.369 167.943 268.64H161.811C161.858 269.396 162.115 269.989 162.581 270.418C163.057 270.838 163.631 271.048 164.303 271.048C164.854 271.048 165.311 270.922 165.675 270.67C166.049 270.409 166.31 270.063 166.459 269.634H167.831C167.626 270.371 167.215 270.973 166.599 271.44C165.983 271.897 165.218 272.126 164.303 272.126C163.575 272.126 162.922 271.963 162.343 271.636C161.774 271.309 161.326 270.847 160.999 270.25C160.673 269.643 160.509 268.943 160.509 268.15C160.509 267.357 160.668 266.661 160.985 266.064C161.303 265.467 161.746 265.009 162.315 264.692C162.894 264.365 163.557 264.202 164.303 264.202C165.031 264.202 165.675 264.361 166.235 264.678C166.795 264.995 167.225 265.434 167.523 265.994C167.831 266.545 167.985 267.17 167.985 267.87ZM166.669 267.604C166.669 267.119 166.562 266.703 166.347 266.358C166.133 266.003 165.839 265.737 165.465 265.56C165.101 265.373 164.695 265.28 164.247 265.28C163.603 265.28 163.053 265.485 162.595 265.896C162.147 266.307 161.891 266.876 161.825 267.604H166.669ZM170.983 270.236L169.415 274.002H168.561L169.583 270.236H170.983ZM175.699 268.136C175.699 267.352 175.857 266.666 176.175 266.078C176.492 265.481 176.926 265.019 177.477 264.692C178.037 264.365 178.657 264.202 179.339 264.202C180.011 264.202 180.594 264.347 181.089 264.636C181.583 264.925 181.952 265.289 182.195 265.728V264.328H183.483V272H182.195V270.572C181.943 271.02 181.565 271.393 181.061 271.692C180.566 271.981 179.987 272.126 179.325 272.126C178.643 272.126 178.027 271.958 177.477 271.622C176.926 271.286 176.492 270.815 176.175 270.208C175.857 269.601 175.699 268.911 175.699 268.136ZM182.195 268.15C182.195 267.571 182.078 267.067 181.845 266.638C181.611 266.209 181.294 265.882 180.893 265.658C180.501 265.425 180.067 265.308 179.591 265.308C179.115 265.308 178.681 265.42 178.289 265.644C177.897 265.868 177.584 266.195 177.351 266.624C177.117 267.053 177.001 267.557 177.001 268.136C177.001 268.724 177.117 269.237 177.351 269.676C177.584 270.105 177.897 270.437 178.289 270.67C178.681 270.894 179.115 271.006 179.591 271.006C180.067 271.006 180.501 270.894 180.893 270.67C181.294 270.437 181.611 270.105 181.845 269.676C182.078 269.237 182.195 268.729 182.195 268.15ZM189.374 264.188C190.307 264.188 191.063 264.473 191.642 265.042C192.22 265.602 192.51 266.414 192.51 267.478V272H191.25V267.66C191.25 266.895 191.058 266.311 190.676 265.91C190.293 265.499 189.77 265.294 189.108 265.294C188.436 265.294 187.899 265.504 187.498 265.924C187.106 266.344 186.91 266.955 186.91 267.758V272H185.636V264.328H186.91V265.42C187.162 265.028 187.502 264.725 187.932 264.51C188.37 264.295 188.851 264.188 189.374 264.188ZM201.199 264.328L196.579 275.612H195.263L196.775 271.916L193.681 264.328H195.095L197.503 270.544L199.883 264.328H201.199ZM212.699 264.328L210.305 272H208.989L207.141 265.91L205.293 272H203.977L201.569 264.328H202.871L204.635 270.768L206.539 264.328H207.841L209.703 270.782L211.439 264.328H212.699ZM217.772 264.188C218.35 264.188 218.873 264.314 219.34 264.566C219.806 264.809 220.17 265.177 220.432 265.672C220.702 266.167 220.838 266.769 220.838 267.478V272H219.578V267.66C219.578 266.895 219.386 266.311 219.004 265.91C218.621 265.499 218.098 265.294 217.436 265.294C216.764 265.294 216.227 265.504 215.826 265.924C215.434 266.344 215.238 266.955 215.238 267.758V272H213.964V261.64H215.238V265.42C215.49 265.028 215.835 264.725 216.274 264.51C216.722 264.295 217.221 264.188 217.772 264.188ZM229.919 267.87C229.919 268.113 229.905 268.369 229.877 268.64H223.745C223.791 269.396 224.048 269.989 224.515 270.418C224.991 270.838 225.565 271.048 226.237 271.048C226.787 271.048 227.245 270.922 227.609 270.67C227.982 270.409 228.243 270.063 228.393 269.634H229.765C229.559 270.371 229.149 270.973 228.533 271.44C227.917 271.897 227.151 272.126 226.237 272.126C225.509 272.126 224.855 271.963 224.277 271.636C223.707 271.309 223.259 270.847 222.933 270.25C222.606 269.643 222.443 268.943 222.443 268.15C222.443 267.357 222.601 266.661 222.919 266.064C223.236 265.467 223.679 265.009 224.249 264.692C224.827 264.365 225.49 264.202 226.237 264.202C226.965 264.202 227.609 264.361 228.169 264.678C228.729 264.995 229.158 265.434 229.457 265.994C229.765 266.545 229.919 267.17 229.919 267.87ZM228.603 267.604C228.603 267.119 228.495 266.703 228.281 266.358C228.066 266.003 227.772 265.737 227.399 265.56C227.035 265.373 226.629 265.28 226.181 265.28C225.537 265.28 224.986 265.485 224.529 265.896C224.081 266.307 223.824 266.876 223.759 267.604H228.603ZM232.874 265.574C233.098 265.135 233.416 264.795 233.826 264.552C234.246 264.309 234.755 264.188 235.352 264.188V265.504H235.016C233.588 265.504 232.874 266.279 232.874 267.828V272H231.6V264.328H232.874V265.574ZM243.823 267.87C243.823 268.113 243.809 268.369 243.781 268.64H237.649C237.696 269.396 237.952 269.989 238.419 270.418C238.895 270.838 239.469 271.048 240.141 271.048C240.692 271.048 241.149 270.922 241.513 270.67C241.886 270.409 242.148 270.063 242.297 269.634H243.669C243.464 270.371 243.053 270.973 242.437 271.44C241.821 271.897 241.056 272.126 240.141 272.126C239.413 272.126 238.76 271.963 238.181 271.636C237.612 271.309 237.164 270.847 236.837 270.25C236.51 269.643 236.347 268.943 236.347 268.15C236.347 267.357 236.506 266.661 236.823 266.064C237.14 265.467 237.584 265.009 238.153 264.692C238.732 264.365 239.394 264.202 240.141 264.202C240.869 264.202 241.513 264.361 242.073 264.678C242.633 264.995 243.062 265.434 243.361 265.994C243.669 266.545 243.823 267.17 243.823 267.87ZM242.507 267.604C242.507 267.119 242.4 266.703 242.185 266.358C241.97 266.003 241.676 265.737 241.303 265.56C240.939 265.373 240.533 265.28 240.085 265.28C239.441 265.28 238.89 265.485 238.433 265.896C237.985 266.307 237.728 266.876 237.663 267.604H242.507ZM245.911 272.084C245.668 272.084 245.463 272 245.295 271.832C245.127 271.664 245.043 271.459 245.043 271.216C245.043 270.973 245.127 270.768 245.295 270.6C245.463 270.432 245.668 270.348 245.911 270.348C246.144 270.348 246.34 270.432 246.499 270.6C246.667 270.768 246.751 270.973 246.751 271.216C246.751 271.459 246.667 271.664 246.499 271.832C246.34 272 246.144 272.084 245.911 272.084Z" fill="black"/>
<path d="M180.501 101.363H146.41C145.054 101.363 143.826 100.558 143.284 99.3172C142.742 98.0729 142.988 96.6241 143.912 95.6321L151.773 87.1674C148.255 82.2413 146.41 76.596 146.41 70.6813C146.41 53.7657 161.703 40 180.501 40C199.298 40 214.591 53.7657 214.591 70.6813C214.591 87.5969 199.298 101.363 180.501 101.363ZM154.227 94.5445H180.501C195.538 94.5445 207.773 83.8401 207.773 70.6813C207.773 57.5224 195.538 46.8181 180.501 46.8181C165.464 46.8181 153.229 57.5224 153.229 70.6813C153.229 75.921 155.165 80.9084 158.826 85.1083C159.972 86.4242 159.941 88.3913 158.755 89.6663L154.227 94.5445Z" fill="#757575"/>
<path d="M166.865 74.0905C168.748 74.0905 170.274 72.5642 170.274 70.6815C170.274 68.7987 168.748 67.2725 166.865 67.2725C164.982 67.2725 163.456 68.7987 163.456 70.6815C163.456 72.5642 164.982 74.0905 166.865 74.0905Z" fill="#757575"/>
<path d="M180.501 74.0905C182.384 74.0905 183.91 72.5642 183.91 70.6815C183.91 68.7987 182.384 67.2725 180.501 67.2725C178.618 67.2725 177.092 68.7987 177.092 70.6815C177.092 72.5642 178.618 74.0905 180.501 74.0905Z" fill="#757575"/>
<path d="M194.137 74.0905C196.02 74.0905 197.546 72.5642 197.546 70.6815C197.546 68.7987 196.02 67.2725 194.137 67.2725C192.254 67.2725 190.728 68.7987 190.728 70.6815C190.728 72.5642 192.254 74.0905 194.137 74.0905Z" fill="#757575"/>
</svg>
